<svg width="305" height="250" viewBox="0 0 305 250" fill="none" xmlns="http://www.w3.org/2000/svg">
<g clip-path="url(#clip0_51_10301)">
<path d="M79.963 239.647C79.963 239.647 61.8084 225.922 58.3788 208.464C56.988 201.132 53.2575 194.448 47.7468 189.415C45.1105 187.047 42.2632 184.926 39.2405 183.077" stroke="#535461" stroke-width="0.66017" stroke-miterlimit="10"/>
<path d="M37.019 172.079C38.61 174.231 39.3296 183.351 39.3296 183.351C39.3296 183.351 30.8233 180.001 29.229 177.852C28.4634 176.819 28.1396 175.524 28.3287 174.252C28.5178 172.98 29.2044 171.836 30.2374 171.07C31.2704 170.305 32.5653 169.981 33.837 170.17C35.1088 170.359 36.2534 171.046 37.019 172.079Z" fill="#6C63FF"/>
<path d="M52.2756 179.235C52.4406 181.905 48.0934 189.953 48.0934 189.953C48.0934 189.953 42.7691 182.513 42.6008 179.842C42.5368 178.569 42.9769 177.322 43.826 176.372C44.675 175.421 45.8644 174.843 47.1366 174.763C48.4088 174.683 49.6612 175.108 50.6225 175.945C51.5838 176.782 52.1765 177.964 52.2723 179.235H52.2756Z" fill="#6C63FF"/>
<path d="M67.0633 199.806C65.8618 202.196 58.0421 206.949 58.0421 206.949C58.0421 206.949 57.207 197.839 58.4085 195.449C59 194.325 60.009 193.478 61.2185 193.091C62.4279 192.703 63.7412 192.806 64.8755 193.377C66.0099 193.948 66.8747 194.942 67.2838 196.144C67.693 197.347 67.6138 198.661 67.0633 199.806Z" fill="#6C63FF"/>
<path d="M74.7509 217.881C73.9686 220.439 67.0666 226.444 67.0666 226.444C67.0666 226.444 64.6999 217.607 65.4822 215.046C65.8582 213.817 66.707 212.787 67.842 212.184C68.977 211.581 70.3052 211.453 71.5343 211.829C72.7634 212.205 73.7928 213.054 74.396 214.189C74.9993 215.324 75.127 216.652 74.7509 217.881Z" fill="#6C63FF"/>
<path d="M40.2242 196.423C42.8648 196.779 51.2127 193.009 51.2127 193.009C51.2127 193.009 44.1687 187.174 41.5148 186.817C40.241 186.646 38.9514 186.988 37.9297 187.767C36.908 188.547 36.2379 189.701 36.0667 190.975C35.8956 192.248 36.2375 193.538 37.0171 194.56C37.7968 195.581 38.9504 196.251 40.2242 196.423Z" fill="#6C63FF"/>
<path d="M49.483 217.452C52.1237 217 58.9466 210.91 58.9466 210.91C58.9466 210.91 50.4766 207.451 47.8392 207.903C47.2078 208.007 46.6031 208.234 46.06 208.573C45.517 208.911 45.0464 209.354 44.6753 209.875C44.3043 210.396 44.0401 210.986 43.8982 211.61C43.7562 212.234 43.7392 212.88 43.8482 213.51C43.9572 214.141 44.1899 214.743 44.5331 215.283C44.8762 215.824 45.3229 216.29 45.8474 216.657C46.3719 217.023 46.9638 217.282 47.589 217.419C48.2141 217.555 48.8601 217.567 49.4896 217.452H49.483Z" fill="#6C63FF"/>
<path d="M61.2835 236.66C63.9605 236.66 71.7175 231.811 71.7175 231.811C71.7175 231.811 63.9572 226.969 61.2802 226.969C59.9951 226.969 58.7626 227.479 57.8538 228.388C56.9451 229.297 56.4346 230.529 56.4346 231.814C56.4346 233.1 56.9451 234.332 57.8538 235.241C58.7626 236.15 59.9951 236.66 61.2802 236.66H61.2835Z" fill="#6C63FF"/>
<path d="M256.327 120.939C256.327 120.939 267.517 101.118 284.385 95.4071C291.467 93.0548 297.597 88.4695 301.853 82.339C303.849 79.4081 305.571 76.2999 306.999 73.0537" stroke="#535461" stroke-width="0.66017" stroke-miterlimit="10"/>
<path d="M312.531 85.4744C309.89 85.996 301.351 82.7545 301.351 82.7545C301.351 82.7545 308.019 76.4829 310.643 75.9713C311.273 75.8315 311.924 75.8189 312.559 75.9344C313.194 76.0499 313.8 76.291 314.341 76.6437C314.881 76.9964 315.346 77.4535 315.707 77.9883C316.069 78.523 316.32 79.1245 316.445 79.7576C316.571 80.3906 316.569 81.0424 316.44 81.6747C316.31 82.307 316.055 82.907 315.691 83.4395C315.326 83.9721 314.859 84.4264 314.316 84.7758C313.773 85.1253 313.166 85.3628 312.531 85.4744Z" fill="#6C63FF"/>
<path d="M294.125 102.863C291.597 101.989 285.85 94.872 285.85 94.872C285.85 94.872 294.762 92.8321 297.297 93.7068C297.907 93.9088 298.469 94.2298 298.953 94.6512C299.437 95.0725 299.833 95.5858 300.117 96.1613C300.401 96.7367 300.568 97.3628 300.608 98.0033C300.648 98.6438 300.56 99.2858 300.35 99.8922C300.14 100.499 299.812 101.057 299.384 101.536C298.957 102.014 298.438 102.403 297.859 102.679C297.28 102.955 296.652 103.114 296.011 103.146C295.37 103.177 294.729 103.081 294.125 102.863Z" fill="#6C63FF"/>
<path d="M277.212 112.885C274.571 112.449 267.719 106.392 267.719 106.392C267.719 106.392 276.166 102.873 278.803 103.309C280.072 103.518 281.207 104.222 281.957 105.267C282.707 106.313 283.011 107.613 282.802 108.882C282.593 110.152 281.889 111.286 280.843 112.036C279.798 112.786 278.498 113.09 277.228 112.881L277.212 112.885Z" fill="#6C63FF"/>
<path d="M293.894 75.8129C293.891 78.4899 298.747 86.2568 298.747 86.2568C298.747 86.2568 303.596 78.4998 303.596 75.8261C303.612 75.1793 303.5 74.5358 303.264 73.9333C303.028 73.3308 302.674 72.7817 302.222 72.3183C301.771 71.8549 301.231 71.4865 300.635 71.235C300.039 70.9836 299.399 70.854 298.752 70.854C298.105 70.854 297.464 70.9836 296.868 71.235C296.272 71.4865 295.732 71.8549 295.281 72.3183C294.829 72.7817 294.475 73.3308 294.239 73.9333C294.004 74.5358 293.891 75.1793 293.908 75.8261L293.894 75.8129Z" fill="#6C63FF"/>
<path d="M274.277 87.7819C275.076 90.3368 282.021 96.2948 282.021 96.2948C282.021 96.2948 284.332 87.442 283.526 84.8871C283.109 83.7034 282.248 82.728 281.125 82.1662C280.003 81.6044 278.706 81.5001 277.508 81.8753C276.311 82.2505 275.305 83.0759 274.704 84.1776C274.102 85.2793 273.952 86.5715 274.284 87.7819H274.277Z" fill="#6C63FF"/>
<path d="M256.826 102.032C257.182 104.672 263.018 111.726 263.018 111.726C263.018 111.726 266.784 103.392 266.428 100.741C266.357 100.099 266.159 99.4772 265.844 98.9128C265.53 98.3484 265.106 97.8526 264.597 97.4546C264.088 97.0565 263.504 96.7643 262.881 96.595C262.257 96.4258 261.606 96.3829 260.966 96.469C260.326 96.555 259.709 96.7683 259.152 97.0962C258.595 97.4241 258.11 97.86 257.724 98.3783C257.338 98.8966 257.06 99.4868 256.906 100.114C256.752 100.742 256.724 101.394 256.826 102.032Z" fill="#6C63FF"/>
<path opacity="0.25" d="M312.531 85.4744C309.89 85.996 301.351 82.7545 301.351 82.7545C301.351 82.7545 308.019 76.4829 310.643 75.9713C311.273 75.8315 311.924 75.8189 312.559 75.9344C313.194 76.0499 313.8 76.291 314.341 76.6437C314.881 76.9964 315.346 77.4535 315.707 77.9883C316.069 78.523 316.32 79.1245 316.445 79.7576C316.571 80.3906 316.569 81.0424 316.44 81.6747C316.31 82.307 316.055 82.907 315.691 83.4395C315.326 83.9721 314.859 84.4264 314.316 84.7758C313.773 85.1253 313.166 85.3628 312.531 85.4744Z" fill="black"/>
<path opacity="0.25" d="M294.125 102.863C291.597 101.989 285.85 94.872 285.85 94.872C285.85 94.872 294.762 92.8321 297.297 93.7068C297.907 93.9088 298.469 94.2298 298.953 94.6512C299.437 95.0725 299.833 95.5858 300.117 96.1613C300.401 96.7367 300.568 97.3628 300.608 98.0033C300.648 98.6438 300.56 99.2858 300.35 99.8922C300.14 100.499 299.812 101.057 299.384 101.536C298.957 102.014 298.438 102.403 297.859 102.679C297.28 102.955 296.652 103.114 296.011 103.146C295.37 103.177 294.729 103.081 294.125 102.863Z" fill="black"/>
<path opacity="0.25" d="M277.212 112.885C274.571 112.449 267.719 106.392 267.719 106.392C267.719 106.392 276.166 102.873 278.803 103.309C280.072 103.518 281.207 104.222 281.957 105.267C282.707 106.313 283.011 107.613 282.802 108.882C282.593 110.152 281.889 111.286 280.843 112.036C279.798 112.786 278.498 113.09 277.228 112.881L277.212 112.885Z" fill="black"/>
<path opacity="0.25" d="M293.894 75.8129C293.891 78.4899 298.747 86.2568 298.747 86.2568C298.747 86.2568 303.596 78.4998 303.596 75.8261C303.612 75.1793 303.5 74.5358 303.264 73.9333C303.028 73.3308 302.674 72.7817 302.222 72.3183C301.771 71.8549 301.231 71.4865 300.635 71.235C300.039 70.9836 299.399 70.854 298.752 70.854C298.105 70.854 297.464 70.9836 296.868 71.235C296.272 71.4865 295.732 71.8549 295.281 72.3183C294.829 72.7817 294.475 73.3308 294.239 73.9333C294.004 74.5358 293.891 75.1793 293.908 75.8261L293.894 75.8129Z" fill="black"/>
<path opacity="0.25" d="M274.277 87.7819C275.076 90.3368 282.021 96.2948 282.021 96.2948C282.021 96.2948 284.332 87.442 283.526 84.8871C283.109 83.7034 282.248 82.728 281.125 82.1662C280.003 81.6044 278.706 81.5001 277.508 81.8753C276.311 82.2505 275.305 83.0759 274.704 84.1776C274.102 85.2793 273.952 86.5715 274.284 87.7819H274.277Z" fill="black"/>
<path opacity="0.25" d="M256.826 102.032C257.182 104.672 263.018 111.726 263.018 111.726C263.018 111.726 266.784 103.392 266.428 100.741C266.357 100.099 266.159 99.4772 265.844 98.9128C265.53 98.3484 265.106 97.8526 264.597 97.4546C264.088 97.0565 263.504 96.7643 262.881 96.595C262.257 96.4258 261.606 96.3829 260.966 96.469C260.326 96.555 259.709 96.7683 259.152 97.0962C258.595 97.4241 258.11 97.86 257.724 98.3783C257.338 98.8966 257.06 99.4868 256.906 100.114C256.752 100.742 256.724 101.394 256.826 102.032Z" fill="black"/>
<path d="M256.971 120.546C256.971 120.546 259.169 97.8888 272.261 85.8407C277.782 80.8196 281.528 74.144 282.936 66.8147C283.576 63.3304 283.896 59.7946 283.889 56.252" stroke="#535461" stroke-width="0.66017" stroke-miterlimit="10"/>
<path d="M292.095 48.6073C291.105 51.0896 283.698 56.4766 283.698 56.4766C283.698 56.4766 282.107 47.4686 283.107 44.9863C283.589 43.7944 284.524 42.8426 285.707 42.3402C286.89 41.8379 288.225 41.8262 289.417 42.3077C290.609 42.7892 291.56 43.7244 292.063 44.9077C292.565 46.091 292.577 47.4253 292.095 48.6172V48.6073Z" fill="#6C63FF"/>
<path d="M293.98 65.3493C291.792 66.8875 282.658 67.3925 282.658 67.3925C282.658 67.3925 286.217 58.9622 288.405 57.424C288.924 57.0355 289.516 56.7552 290.145 56.5995C290.774 56.4439 291.429 56.4161 292.069 56.5178C292.709 56.6195 293.322 56.8486 293.872 57.1916C294.423 57.5346 294.898 57.9845 295.271 58.5147C295.644 59.0448 295.907 59.6444 296.044 60.278C296.182 60.9116 296.19 61.5663 296.07 62.2033C295.95 62.8403 295.703 63.4466 295.344 63.9864C294.985 64.5263 294.521 64.9886 293.98 65.346V65.3493Z" fill="#6C63FF"/>
<path d="M284.19 88.7127C281.523 88.9372 273.383 84.7517 273.383 84.7517C273.383 84.7517 280.711 79.2723 283.378 79.0478C284.658 78.9401 285.93 79.3456 286.911 80.1751C287.893 81.0046 288.505 82.1902 288.613 83.4709C288.72 84.7517 288.315 86.0228 287.485 87.0046C286.656 87.9864 285.47 88.5984 284.19 88.7061V88.7127Z" fill="#6C63FF"/>
<path d="M272.799 104.718C270.207 105.378 261.48 102.649 261.48 102.649C261.48 102.649 267.775 96.0107 270.366 95.3373C271.61 95.0147 272.931 95.1995 274.039 95.851C275.147 96.5025 275.95 97.5674 276.273 98.8114C276.595 100.055 276.41 101.377 275.759 102.484C275.107 103.592 274.043 104.396 272.799 104.718Z" fill="#6C63FF"/>
<path d="M273.03 64.0685C274.112 66.5145 281.685 71.6605 281.685 71.6605C281.685 71.6605 282.972 62.603 281.889 60.157C281.35 59.0127 280.384 58.1247 279.199 57.6828C278.013 57.241 276.702 57.2803 275.545 57.7923C274.388 58.3044 273.477 59.2486 273.007 60.4232C272.537 61.5978 272.545 62.9097 273.03 64.0784V64.0685Z" fill="#6C63FF"/>
<path d="M259.945 82.9558C261.711 84.966 270.472 87.6001 270.472 87.6001C270.472 87.6001 268.993 78.5723 267.227 76.5621C266.81 76.0737 266.3 75.6731 265.727 75.3834C265.154 75.0938 264.529 74.9209 263.889 74.8748C263.249 74.8287 262.605 74.9104 261.997 75.115C261.388 75.3196 260.826 75.6431 260.344 76.0668C259.862 76.4904 259.468 77.0057 259.186 77.5827C258.905 78.1597 258.741 78.7869 258.704 79.4279C258.667 80.0688 258.757 80.7108 258.97 81.3164C259.183 81.9221 259.515 82.4793 259.945 82.9558Z" fill="#6C63FF"/>
<path d="M249.749 103.065C251.148 105.342 259.338 109.419 259.338 109.419C259.338 109.419 259.407 100.272 258.017 97.9913C257.326 96.9381 256.251 96.1959 255.021 95.9219C253.791 95.6479 252.503 95.8637 251.43 96.5237C250.356 97.1836 249.582 98.2357 249.271 99.4568C248.961 100.678 249.138 101.972 249.765 103.065H249.749Z" fill="#6C63FF"/>
<path d="M240.137 31.816C240.685 29.8058 241.345 27.7856 241.807 25.749C241.252 27.7856 240.589 29.8124 240.137 31.816Z" fill="url(#paint0_linear_51_10301)"/>
<path d="M237.681 51.1789C237.635 51.0997 237.602 51.0205 237.565 50.9479C237.565 50.9149 237.532 50.8885 237.519 50.8554C237.447 50.8894 237.373 50.9191 237.298 50.9446C237.153 51.0007 237.004 51.0535 236.852 51.0964C236.7 51.1393 236.638 51.1624 236.522 51.1888C236.426 51.2218 236.328 51.2472 236.228 51.2648L236.255 51.3242C236.377 51.2978 236.496 51.2747 236.618 51.2416L236.651 51.651C236.79 51.651 236.918 51.6311 237.044 51.6311C237.103 51.6279 237.163 51.6279 237.222 51.6311C237.479 51.6311 237.704 51.6311 237.882 51.6311C237.813 51.4826 237.74 51.3275 237.681 51.1789ZM304.688 157.839C303.137 155.75 300.04 133.324 300.04 133.324C300.04 133.324 293.95 117.377 295.611 111.013C297.271 104.649 291.075 88.3663 291.075 88.3663C291.075 88.3663 286.982 86.5871 286.761 83.9464C286.761 83.9464 270.049 78.6651 269.267 74.7041C268.633 71.456 258.268 69.1256 254.545 68.3895C253.409 63.808 252.267 59.5334 251.426 57.1997C251.198 56.4735 250.983 55.8463 250.785 55.3512C249.363 51.7203 244.966 51.3902 241.777 51.6807C241.639 51.0618 241.382 50.4756 241.021 49.9543C240.969 49.7751 240.864 49.6155 240.721 49.4955C240.652 49.4372 240.58 49.3842 240.503 49.3371C240.445 49.2301 240.369 49.134 240.279 49.0532C240.188 48.9716 240.088 48.9007 239.982 48.8419C239.905 48.8004 239.825 48.764 239.744 48.733C239.553 48.6602 239.355 48.606 239.153 48.5713C238.918 48.5229 238.68 48.492 238.44 48.4788C239.023 48.224 239.542 47.8442 239.962 47.3664C240.247 47.031 240.46 46.6398 240.586 46.2178C240.69 45.8668 240.737 45.5011 240.724 45.1351C240.639 45.2859 240.539 45.4285 240.427 45.5609C240.566 44.0986 239.793 42.6132 239.351 41.1576C238.815 39.2625 238.716 37.2705 239.061 35.3316C239.503 32.407 240.599 29.4494 241.341 26.4721C241.343 26.4556 241.343 26.439 241.341 26.4226C241.731 24.9439 241.972 23.4302 242.061 21.9037C242.19 18.824 241.401 15.7509 240.133 12.9452C239.008 10.4597 237.347 8.01374 234.806 7.00368C232.918 6.24119 230.802 6.36332 228.769 6.23789C224.207 5.95401 219.856 4.3498 215.519 2.89083C211.182 1.43185 206.719 0.104912 202.154 0.359077C197.589 0.613242 192.892 2.81491 190.809 6.85514C190.149 8.11607 189.769 9.51893 188.98 10.7039C187.501 12.9386 184.854 14.0576 182.646 15.5991C180.438 17.1406 178.493 19.3291 177.695 21.94C177.258 23.3467 177.197 24.8429 177.516 26.2806C177.588 26.6053 177.681 26.9251 177.794 27.2379C178.107 28.1101 178.595 28.9088 179.229 29.5848C179.708 30.0844 180.257 30.5104 180.86 30.849C181.617 31.2688 182.428 31.5841 183.27 31.7864C183.24 31.8855 183.21 31.9911 183.177 32.0934C183.124 32.2618 183.078 32.4235 183.029 32.6051C182.92 33.0111 182.817 33.4237 182.732 33.8396C182.728 33.8692 182.728 33.8991 182.732 33.9287C182.326 35.8062 182.123 37.7217 182.124 39.6425C182.124 40.5509 182.17 41.4587 182.263 42.3624C183.583 55.7572 194.641 66.3232 208.303 67.0098C208.772 67.0329 209.244 67.0461 209.723 67.0461C209.94 67.0461 210.155 67.0461 210.383 67.0461C210.597 67.33 210.809 67.6205 211.01 67.9043C211.211 68.1882 211.396 68.4787 211.571 68.7625L211.092 68.2674L210.614 67.8284C210.484 68.0065 210.339 68.1732 210.181 68.3268C209.869 68.217 209.551 68.1266 209.228 68.0562C207.858 67.7525 205.772 67.6403 203.025 68.4688C200.5 69.2247 197.414 70.7794 193.803 73.7336L176.206 84.2963L166.686 90.086L163.257 98.4702C163.257 98.4702 160.679 108.432 157.81 119.846C157.698 119.879 157.589 119.912 157.48 119.952C157.248 119.926 157.014 119.912 156.78 119.912C155.116 119.909 153.515 120.55 152.314 121.701C151.112 122.853 150.404 124.425 150.337 126.088C144.633 133.02 144.31 139.952 145.65 143.134C145.771 143.432 145.924 143.716 146.105 143.982C146.983 145.25 148.624 148.518 150.288 152C150.245 152.287 150.218 152.528 150.205 152.71C150.202 152.769 150.202 152.829 150.205 152.888C150.205 152.888 151.195 167.844 147.894 172.132C147.172 173.066 147.28 174.294 147.894 175.654C150.106 180.546 158.85 187.078 158.85 187.078C158.85 187.078 169.337 187.022 175.179 186.385C175.163 186.973 175.15 187.557 175.136 188.128C175.004 193.898 175.004 198.733 175.004 198.733L174.786 204.784C174.786 204.784 172.806 217.535 171.816 221.05C171.192 223.255 171.911 243.671 172.539 258.68H275.862C277.076 249.801 275.363 222.823 275.363 222.823C275.363 222.823 273.736 215.848 273.677 209.768C273.673 209.761 273.672 209.754 273.672 209.747C273.672 209.739 273.673 209.732 273.677 209.725C273.677 209.194 273.677 208.676 273.696 208.167L274.446 208.141L275.792 208.095H275.915C275.915 208.095 275.948 207.969 276.023 207.765C276.202 207.255 276.445 206.77 276.746 206.322C277.321 205.474 278.219 204.642 279.569 204.586C280.315 204.556 281.47 203.952 282.774 203.061C282.782 203.063 282.791 203.063 282.8 203.061C286.309 200.688 290.947 196.307 292.072 195.588C293.62 194.597 301.034 187.996 301.034 187.996C301.034 187.996 302.14 186.596 303.318 184.909L303.361 184.85C304.827 182.738 306.385 180.212 306.002 179.417C305.342 177.991 306.444 174.581 306.444 174.581C309.887 168.28 306.239 159.929 304.688 157.839ZM240.86 56.3117C240.891 56.4103 240.911 56.5122 240.919 56.6154C240.836 56.5065 240.754 56.391 240.671 56.2853L240.592 56.1797L240.536 56.1005L240.661 55.9288C240.661 55.9288 240.661 55.9289 240.661 55.952C240.749 56.059 240.816 56.1809 240.86 56.3117ZM239.75 53.3872C239.391 53.4598 239.107 53.5258 238.922 53.5753C238.688 53.1594 238.463 52.7435 238.262 52.321C238.791 52.628 239.289 52.9851 239.75 53.3872ZM239.13 53.9087C239.129 53.9022 239.129 53.8955 239.13 53.8889L239.156 53.9087C239.292 53.9979 239.424 54.0837 239.546 54.1728C239.655 54.252 239.754 54.3279 239.853 54.4072C239.787 54.5227 239.714 54.6415 239.642 54.7372C239.526 54.5557 239.417 54.3808 239.311 54.1992C239.245 54.1266 239.186 54.0276 239.13 53.9087ZM237.149 49.8355C237.787 49.7726 238.429 49.7726 239.067 49.8355C239.156 49.8355 239.236 49.852 239.315 49.8652C239.494 49.8929 239.67 49.9382 239.84 50.0005C240.23 50.5463 240.47 51.1848 240.536 51.8523L240.358 51.8787L240.183 51.9117C239.853 51.9678 239.523 52.0239 239.265 52.0768L238.935 52.1461C238.496 52.2418 238.242 52.3144 238.232 52.3177C238.189 52.2286 238.146 52.1461 238.1 52.0603C238.027 51.9183 237.951 51.7731 237.885 51.6311C237.819 51.4892 237.734 51.3275 237.664 51.1789C237.618 51.0997 237.585 51.0205 237.549 50.9479C237.549 50.9149 237.516 50.8885 237.503 50.8554C237.483 50.8204 237.467 50.784 237.453 50.7465C237.252 50.3372 237.067 49.9279 236.889 49.5252C236.869 49.4856 236.852 49.4427 236.836 49.4031L237.087 49.3866V49.4724L237.149 49.8355ZM158.394 254.6C158.368 249.685 158.012 244.368 157.021 239.377C156.599 237.254 156.163 235.132 155.721 233.046C155.609 232.524 155.5 232.009 155.391 231.494L154.374 231.63H154.282C151.509 218.555 148.611 207.035 148.611 207.035C148.611 207.035 142.854 185.055 143.521 183.302C143.607 183.074 143.498 182.46 143.253 181.559C141.861 176.562 136.044 162.79 134.011 158.083C134.011 158.064 133.995 158.041 133.988 158.024C133.658 157.235 133.42 156.704 133.348 156.549L133.826 149.524L133.853 149.102L133.915 148.204L133.889 148.181L133.915 147.765C133.915 147.765 128.891 143.646 120.382 140.672C120.052 140.553 119.702 140.437 119.355 140.325C119.781 137.483 120.346 134.274 121.082 131.149C121.151 130.835 121.227 130.531 121.306 130.224C121.375 129.917 121.455 129.62 121.534 129.32C121.659 128.831 121.795 128.349 121.933 127.874C122.392 127.729 122.844 127.567 123.29 127.396L123.462 127.329C128.951 125.193 133.481 121.141 136.212 115.921C138.943 110.702 139.69 104.67 138.315 98.9422C137.532 95.6937 136.084 92.6424 134.064 89.9804C133.912 89.7757 133.75 89.5711 133.589 89.3697C133.427 89.1684 133.232 88.9439 133.051 88.7393C134.004 86.5706 135.13 84.5076 135.223 82.3983C135.239 82.1312 135.239 81.8634 135.223 81.5962V81.5632C135.1 80.2066 134.5 78.8334 133.1 77.391C131.057 75.2751 128.149 74.2023 125.241 73.6874C122.333 73.1725 119.369 73.1593 116.444 72.8127C111.595 72.2317 106.872 70.7365 102.023 70.2776C96.05 69.7246 90.0368 70.7489 84.5842 73.2484C80.9764 74.8988 77.3223 77.7838 77.1045 81.7415C76.9262 85.0126 79.2038 88.1484 78.6295 91.38C78.0584 94.5554 74.8236 97.0541 75.1075 100.266C75.2164 101.52 75.8601 102.642 76.6655 103.643C76.9427 103.973 77.2365 104.303 77.5402 104.633C78.7153 105.877 80.0092 107.072 80.6661 108.64C80.6925 108.706 80.7189 108.772 80.742 108.838C81.2998 110.386 81.049 112.344 79.6692 113.232C79.6769 113.237 79.6826 113.246 79.6857 113.255C79.7055 113.281 79.7253 113.301 79.7418 113.327C79.7439 113.322 79.7439 113.316 79.7418 113.311C80.2311 113.891 80.8905 114.302 81.6266 114.486L81.9072 114.572C81.6794 114.819 81.4649 115.077 81.247 115.347L81.1051 115.536C80.7413 116.025 80.4105 116.537 80.1148 117.07C79.9465 117.368 79.7848 117.665 79.6494 117.962C79.197 118.867 78.8694 119.83 78.6757 120.824C78.3225 123.009 78.8209 125.286 78.2862 127.425C77.626 130.066 75.5366 132.093 74.3582 134.545C72.1268 139.166 73.391 144.59 73.8399 149.693C74.4506 156.625 73.4603 163.586 72.4734 170.472C71.9497 174.133 71.4259 177.798 70.9022 181.467C69.5818 190.674 68.2615 199.881 66.9412 209.088C66.4592 212.462 65.8882 216.02 63.6403 218.624H63.6634C63.6634 218.624 63.6634 218.644 63.6403 218.651C64.3151 218.946 65.0328 219.131 65.7661 219.199C68.7005 219.492 71.8099 218.073 74.4506 216.522C76.5418 215.313 78.5223 213.923 80.369 212.366C80.0983 213.356 79.8079 214.436 79.4976 215.597C79.4986 215.608 79.4986 215.619 79.4976 215.63C75.7709 229.824 69.7766 255.845 69.7766 255.845C69.7766 255.845 69.232 256.977 68.5256 258.664H161.609C160.52 257.343 159.507 256.079 158.715 255.059L158.394 254.6ZM89.4728 123.359C89.4959 123.319 89.5124 123.283 89.5355 123.246C89.5355 123.352 89.5355 123.454 89.5355 123.553C89.5355 123.652 89.5355 123.741 89.5355 123.834C89.5355 123.926 89.5355 123.916 89.5355 123.963C89.5355 124.098 89.5058 124.233 89.4827 124.369C89.4827 124.369 89.4827 124.385 89.4827 124.398L89.8127 124.52L90.1956 124.679C92.4578 125.572 94.7486 126.381 97.068 127.105C97.3057 127.181 97.5466 127.254 97.7876 127.323L97.8371 127.732C97.8965 128.151 97.9526 128.577 98.0054 129.003C98.0054 129.003 98.0054 129.023 98.0054 129.036C98.154 130.214 98.2992 131.39 98.428 132.538C98.428 132.538 92.3676 130.228 92.4435 133.736C92.4401 133.799 92.4401 133.862 92.4435 133.925C92.4368 134.008 92.4368 134.092 92.4435 134.175C92.4996 136.909 93.3545 138.529 93.5262 139.361C93.5159 139.396 93.4978 139.427 93.4734 139.454C93.3269 139.772 93.2765 140.127 93.3281 140.473C93.3224 141.064 93.3688 141.654 93.4668 142.236C93.2885 142.345 93.1136 142.454 92.9386 142.566C92.8066 142.649 92.6812 142.741 92.5524 142.834C91.7427 140.025 90.6833 137.294 89.3869 134.674C88.4792 132.806 87.4592 130.858 87.4691 128.808C87.4691 128.676 87.4691 128.541 87.4856 128.406C87.5224 127.811 87.6356 127.225 87.8223 126.659C87.8982 126.445 87.9808 126.234 88.0732 126.026C88.2889 125.532 88.5302 125.049 88.7961 124.58C88.9677 124.27 89.1493 123.963 89.3242 123.652C89.3803 123.56 89.4331 123.464 89.486 123.372L89.4728 123.359ZM237.681 51.1789C237.635 51.0997 237.602 51.0205 237.565 50.9479C237.565 50.9149 237.532 50.8885 237.519 50.8554C237.447 50.8894 237.373 50.9191 237.298 50.9446C237.153 51.0007 237.004 51.0535 236.852 51.0964C236.7 51.1393 236.638 51.1624 236.522 51.1888L236.228 51.2648L236.255 51.3242C236.377 51.2978 236.496 51.2747 236.618 51.2416L236.651 51.651C236.79 51.651 236.918 51.6311 237.044 51.6311H237.222C237.479 51.6311 237.704 51.6311 237.882 51.6311C237.813 51.4826 237.74 51.3275 237.681 51.1789Z" fill="url(#paint1_linear_51_10301)"/>
<path d="M165.557 99.6618L163.577 100.536C163.577 100.536 150.667 150.69 150.667 154.743C150.667 158.796 178.041 181.351 178.041 181.351L182.312 152.522C182.312 152.522 176.179 86.4089 165.557 99.6618Z" fill="#E8F5FF"/>
<path d="M225.603 83.7085L214.165 77.7406C213.525 75.0096 212.388 72.4195 210.812 70.0991C209.138 67.6829 206.914 65.3096 204.141 64.0718C197.133 60.9294 233.782 44.4351 233.782 44.4351C234.36 46.4165 235.04 48.3666 235.819 50.2776C237.707 54.9384 240.84 60.9657 244.877 62.6821C251.739 65.6034 225.603 83.7085 225.603 83.7085Z" fill="#FFC1C7"/>
<path opacity="0.1" d="M235.819 50.2776C234.253 55.785 230.997 60.6614 226.509 64.218C222.022 67.7747 216.531 69.8319 210.812 70.0991C209.138 67.6829 206.914 65.3096 204.141 64.0718C197.133 60.9294 233.782 44.4351 233.782 44.4351C234.36 46.4165 235.04 48.3666 235.819 50.2776Z" fill="black"/>
<path d="M236.849 41.9493C236.85 47.3507 235.25 52.6312 232.25 57.1229C229.25 61.6146 224.985 65.1158 219.995 67.1836C215.005 69.2513 209.514 69.7929 204.217 68.7397C198.919 67.6865 194.052 65.0858 190.233 61.2667C186.413 57.4475 183.812 52.5814 182.758 47.2838C181.704 41.9862 182.245 36.4951 184.312 31.5049C186.379 26.5147 189.88 22.2496 194.371 19.2491C198.863 16.2485 204.143 14.6473 209.545 14.648C213.135 14.6314 216.692 15.3262 220.012 16.6923C223.332 18.0584 226.349 20.0687 228.888 22.6071C231.426 25.1456 233.437 28.1618 234.804 31.4817C236.17 34.8015 236.865 38.3592 236.849 41.9493Z" fill="#FFC1C7"/>
<path d="M240.79 80.203L233.344 97.5787L226.775 109.112H205.748L199.615 93.3437L202.101 76.9913H218.16L228.528 76.407L232.03 75.2385L234.288 76.5193L240.79 80.203Z" fill="#575A89"/>
<path opacity="0.1" d="M238.226 57.0412C238.226 57.0412 242.87 58.0314 238.711 61.4412C234.552 64.851 220.203 75.6943 220.203 75.6943C220.203 75.6943 225.243 80.1834 224.2 85.4417L240.899 76.1333L243.87 61.2399C243.87 61.2399 244.203 56.7639 238.226 57.0412Z" fill="black"/>
<path opacity="0.1" d="M223.487 75.6941L212.865 77.4468C212.865 77.4468 215.057 85.5504 213.961 87.8511C213.928 87.9226 213.9 87.9966 213.878 88.0723L209.544 99.787L212.792 108.986L224.035 93.654L220.203 87.8511C220.203 87.8511 224.253 82.4839 226.663 80.6223C229.072 78.7606 223.487 75.6941 223.487 75.6941Z" fill="black"/>
<path d="M223.487 75.2419L212.865 76.9914C212.865 76.9914 215.057 85.095 213.961 87.3957C213.928 87.4672 213.9 87.5411 213.878 87.6168L209.544 99.3315L212.792 108.531L224.035 93.1887L220.203 87.3858C220.203 87.3858 224.253 82.0186 226.663 80.1569C229.072 78.2952 223.487 75.2419 223.487 75.2419Z" fill="#DCE6F2"/>
<path d="M238.671 56.1664C238.671 56.1664 243.315 57.1567 239.153 60.5665C234.991 63.9762 220.203 75.6942 220.203 75.6942C220.203 75.6942 225.679 79.3087 224.639 84.5636L241.338 75.2585L244.309 60.3651C244.309 60.3651 244.639 55.8892 238.671 56.1664Z" fill="#575A89"/>
<path opacity="0.1" d="M211.541 71.1323C211.541 71.1323 212.555 73.027 217.027 76.4434C217.027 76.4434 209.581 80.4044 212.429 85.9729L201.038 83.0022L199.285 77.5261L211.541 71.1323Z" fill="black"/>
<path d="M211.102 70.6965C211.102 70.6965 212.116 72.5912 216.588 76.0076C216.588 76.0076 209.142 79.9488 211.99 85.5338L200.602 82.5631L198.85 77.0903L211.102 70.6965Z" fill="#575A89"/>
<path opacity="0.1" d="M240.79 80.2033L233.344 97.5789L226.788 109.112H205.748L199.615 93.344L202.098 76.9916H206.564C206.491 80.8073 207.884 85.2899 207.795 86.9568C207.643 89.6965 211.881 104.478 211.881 104.478C211.881 104.478 220.751 90.1322 224.253 88.8548C226.455 88.0527 231.119 81.3784 234.284 76.5195L240.79 80.2033Z" fill="black"/>
<path d="M270.125 171.64L269.369 172.59C269.369 172.59 274.845 200.077 273.33 206.318C273.072 207.444 272.925 208.591 272.891 209.745V209.794C272.624 216.145 274.541 224.387 274.541 224.387C274.541 224.387 276.073 248.682 275.202 258.673H172.671C172.07 243.899 171.423 224.757 172.01 222.635C173.001 219.132 174.981 206.427 174.981 206.427L175.199 200.407C175.199 200.407 175.199 194.587 175.377 188.104C175.453 185.19 175.565 182.13 175.727 179.417C175.935 176.004 176.226 173.128 176.625 171.716C176.871 170.645 177.013 169.553 177.048 168.454C177.048 168.352 177.048 168.247 177.067 168.141C177.067 167.811 177.1 167.454 177.114 167.088C177.114 166.986 177.114 166.883 177.114 166.758C177.176 164.632 177.153 162.11 177.084 159.496C177.084 159.354 177.084 159.209 177.084 159.064C177.028 157.103 176.945 155.103 176.853 153.201C176.566 147.26 176.193 142.236 176.193 142.236L163.6 100.513L166.993 92.1554L176.411 86.3855L193.822 75.8723C202.316 68.891 207.907 69.7294 210.04 70.4952C210.247 70.5659 210.449 70.6485 210.647 70.7428C210.713 70.7758 210.766 70.8022 210.815 70.8319C210.883 70.864 210.948 70.9015 211.01 70.9441C210.426 71.225 209.919 71.6429 209.531 72.1621C209.095 72.753 208.783 73.427 208.617 74.1426C208.505 74.5862 208.427 75.0375 208.383 75.4927C208.34 75.9713 208.323 76.4664 208.323 76.9649C208.347 78.0579 208.44 79.1483 208.604 80.2294C208.604 80.2492 208.604 80.2756 208.604 80.302C208.713 81.0744 208.848 81.8303 208.98 82.54C208.978 82.552 208.978 82.5642 208.98 82.5763C209.132 83.4048 209.284 84.1706 209.386 84.8308C209.406 84.9496 209.422 85.0585 209.439 85.1609C209.512 85.5971 209.546 86.0389 209.541 86.4812C209.578 87.5491 209.722 88.6107 209.97 89.65C210.056 90.0857 210.155 90.5512 210.264 91.0364C210.413 91.6966 210.574 92.4161 210.749 93.1489C210.845 93.5516 210.947 93.9675 211.053 94.3801C211.093 94.5452 211.135 94.7102 211.175 94.8786L211.241 95.1393C211.944 97.9352 212.707 100.718 213.175 102.401C213.453 103.391 213.628 104.002 213.628 104.002C213.628 104.002 218.599 95.9645 222.566 91.3896C222.626 91.3235 222.678 91.2608 222.735 91.2014C223.127 90.7492 223.514 90.3366 223.883 89.9735C224.692 89.1681 225.418 88.5938 226.002 88.3825C226.127 88.3368 226.247 88.2805 226.362 88.2141C227.986 87.2932 230.607 83.9495 233.06 80.4473C233.301 80.1172 233.535 79.7574 233.773 79.4174C234.317 78.6318 234.845 77.8429 235.344 77.087C235.727 76.5093 236.093 75.9482 236.44 75.4135C238.09 72.8454 239.252 70.9309 239.252 70.9309L241.543 70.8286L241.942 70.8088H242.21L252.611 70.3269C252.611 70.3269 253.059 70.4028 253.799 70.5513C253.838 70.5513 253.878 70.5513 253.921 70.5777C257.611 71.3105 267.864 73.631 268.491 76.8493C269.257 80.7905 285.794 86.0488 285.794 86.0488C286.012 88.6895 290.062 90.429 290.062 90.429C290.062 90.429 296.195 106.636 294.554 112.987C292.934 119.259 298.773 134.773 298.928 135.208L297.809 136.621L270.125 171.64Z" fill="#E8F5FF"/>
<path opacity="0.1" d="M238.222 55.8888C238.222 55.8888 248.346 53.017 250.647 58.9288C252.947 64.8407 258.093 88.7157 258.093 88.7157C258.093 88.7157 244.732 91.2342 241.229 88.7157C239.175 87.221 236.632 86.5561 234.109 86.854L226.554 92L224.322 91.3399C224.322 91.3399 236.41 73.37 239.038 67.2635C241.665 61.1569 242.553 58.4271 238.222 55.8888Z" fill="black"/>
<path d="M237.783 54.5687C237.783 54.5687 247.914 51.6969 250.224 57.6088C252.535 63.5206 257.671 87.3956 257.671 87.3956C257.671 87.3956 244.312 89.9142 240.807 87.3956C238.754 85.9008 236.212 85.2359 233.69 85.5339L226.128 90.68L223.897 90.0198C223.897 90.0198 235.984 72.05 238.612 65.9434C241.239 59.8368 242.114 57.1136 237.783 54.5687Z" fill="#E8F5FF"/>
<path opacity="0.1" d="M169.829 149.815C169.829 149.815 177.384 151.676 178.81 155.948C180.236 160.219 173.225 160.328 173.225 160.328C173.225 160.328 168.954 152.772 169.829 149.815Z" fill="black"/>
<path opacity="0.1" d="M197.972 181.351C197.972 181.351 179.467 219.242 183.738 222.856C188.01 226.47 197.972 181.351 197.972 181.351Z" fill="black"/>
<path opacity="0.1" d="M223.487 153.429C223.487 153.429 238.272 190.233 235.314 195.917C232.357 201.602 241.665 195.917 241.665 195.917L223.487 153.429Z" fill="black"/>
<path d="M244.075 189.784C244.075 189.784 194.139 192.194 208.706 207.744C223.273 223.295 253.165 208.404 253.165 208.404L244.075 189.784Z" fill="#FFC1C7"/>
<path opacity="0.1" d="M236.849 41.9494C236.854 45.5308 236.15 49.0779 234.779 52.3866C234.321 52.4395 233.862 52.4725 233.42 52.4923C232.759 51.0432 233.113 49.3697 233.126 47.7754C233.139 46.1811 232.551 44.3062 231.016 43.8771C227.957 43.0155 225.844 48.7359 222.827 47.7027C220.516 46.9171 221.121 43.4116 219.79 41.3882C218.737 39.7873 216.628 39.3351 214.988 38.3316C211.499 36.1894 211.604 32.7631 209.983 29.5217C208.287 26.1251 204.702 27.1286 201.589 29.1322C199.226 30.6572 197.186 32.7004 194.658 33.9151C192.469 34.9714 190.01 35.3543 187.584 35.4104C186.09 35.4683 184.596 35.3104 183.148 34.9417C184.851 28.536 188.827 22.9687 194.333 19.2781C199.839 15.5874 206.499 14.0253 213.072 14.883C219.644 15.7407 225.681 18.9598 230.055 23.9398C234.429 28.9199 236.843 35.321 236.846 41.9494H236.849Z" fill="black"/>
<path d="M201.599 28.2578C199.233 29.7828 197.196 31.8227 194.667 33.044C192.479 34.097 190.02 34.4799 187.594 34.536C184.623 34.602 181.424 34.0805 179.394 31.9349C177.529 29.9544 177.084 26.9077 177.873 24.31C178.662 21.7122 180.553 19.5567 182.775 17.9954C184.996 16.4341 187.574 15.3548 189.046 13.1201C189.825 11.9384 190.201 10.5454 190.848 9.28781C192.918 5.26407 197.572 3.08551 202.071 2.81484C206.57 2.54417 211.03 3.88432 215.314 5.33669C219.599 6.78906 223.916 8.38667 228.438 8.68705C230.452 8.81248 232.545 8.68705 234.413 9.44955C236.925 10.4695 238.572 12.9088 239.694 15.3911C240.952 18.1902 241.734 21.2468 241.602 24.3034C241.325 30.8291 237.014 37.2328 238.909 43.4846C239.41 45.1515 240.351 46.8614 239.849 48.5283C239.117 50.961 235.978 51.5156 233.439 51.6311C232.779 50.182 233.132 48.5052 233.145 46.9142C233.159 45.3232 232.571 43.445 231.04 43.0159C227.976 42.1609 225.864 47.8714 222.853 46.8416C220.559 46.0527 221.153 42.5505 219.82 40.527C218.767 38.9228 216.654 38.4739 215.017 37.4704C211.528 35.3282 211.634 31.9019 210.013 28.6605C208.303 25.2474 204.715 26.2509 201.599 28.2578Z" fill="#99607E"/>
<path d="M153.179 153.865L150.661 154.743C150.661 154.743 151.651 169.636 148.35 173.908C145.049 178.179 159.19 188.798 159.19 188.798C159.19 188.798 178.573 188.689 179.12 187.147C179.668 185.606 178.13 159.552 178.13 159.552C178.13 159.552 167.726 155.499 168.601 149.039C168.601 149.039 165.425 164.259 160.718 163.602C156.011 162.946 150.667 159.014 153.179 153.865Z" fill="#E8F5FF"/>
<path opacity="0.1" d="M161.58 168.21C165.25 168.21 168.224 165.489 168.224 162.133C168.224 158.777 165.25 156.056 161.58 156.056C157.91 156.056 154.935 158.777 154.935 162.133C154.935 165.489 157.91 168.21 161.58 168.21Z" fill="black"/>
<path d="M168.845 154.304C168.845 154.304 167.525 114.007 156.031 122.985C144.538 131.964 144.425 142.701 146.614 145.873C148.802 149.045 155.82 164.926 155.82 164.926C156.918 165.562 158.15 165.929 159.417 165.997C160.684 166.065 161.949 165.832 163.109 165.316C164.268 164.801 165.289 164.018 166.087 163.032C166.886 162.047 167.44 160.886 167.703 159.644L168.845 154.304Z" fill="#FFC1C7"/>
<path opacity="0.1" d="M240.543 52.2317C240.489 52.0547 240.386 51.8966 240.246 51.7762C239.678 51.258 238.457 51.0764 236.615 51.2349L236.691 52.1063C239.146 51.895 239.632 52.3836 239.694 52.4661V52.5486L239.77 52.6575C240.076 53.0691 240.293 53.54 240.407 54.0402C240.521 54.5404 240.529 55.0588 240.43 55.5623C239.892 58.2525 236.588 60.3947 236.555 60.4178L236.476 60.464L236.427 60.54C235.001 62.6558 226.937 68.627 224.827 70.1718L224.642 69.9606C223.698 70.7792 215.4 78.0443 214.951 80.827C214.661 82.5731 212.693 83.2498 211.98 83.4379C211.228 82.8669 208.785 80.9227 207.514 78.7441C206.323 76.6943 211.119 72.6937 211.541 71.1324L210.881 70.4557C210.812 70.7066 204.653 76.4632 206.366 79.4043C207.739 81.7644 210.247 83.7845 211.126 84.4513C210.845 86.9995 209.099 101.962 206.415 105.507C203.081 109.914 200.279 132.122 200.589 139.876C200.863 146.765 199.064 159.777 193.057 165.365C192.017 166.375 190.762 167.137 189.386 167.594C188.01 168.051 186.549 168.192 185.112 168.006H185.039H184.966C184.88 168.006 176.166 168.897 168.845 162.724C162.854 157.684 159.461 149.458 158.754 138.268H158.609L158.55 135.01C160.174 134.757 161.637 133.884 162.631 132.574C163.625 131.265 164.073 129.621 163.88 127.988C163.688 126.355 162.87 124.861 161.598 123.818C160.327 122.776 158.701 122.267 157.062 122.398C155.423 122.53 153.899 123.291 152.81 124.523C151.721 125.754 151.151 127.36 151.221 129.002C151.291 130.645 151.995 132.197 153.185 133.331C154.375 134.466 155.958 135.095 157.602 135.086H157.675L157.734 138.324L157.444 138.344C158.17 149.897 161.735 158.443 168.007 163.721C172.773 167.671 178.862 169.664 185.042 169.296C185.481 169.344 185.921 169.368 186.363 169.369C189.195 169.383 191.921 168.287 193.955 166.316C200.282 160.424 202.207 146.933 201.906 139.81C201.576 131.594 204.517 110.185 207.468 106.286C210.36 102.461 212.112 87.5541 212.419 84.6658C213.466 84.3721 215.833 83.4445 216.235 81.0349C216.526 79.2921 222.068 73.9216 225.478 70.9475L225.375 70.8287C227.211 69.4886 232.918 65.2635 235.747 62.5502C236.625 61.7085 237.496 60.8667 238.407 60.0646C239.503 59.0942 240.896 57.5527 241.262 55.7306C241.387 55.1292 241.388 54.5085 241.264 53.9068C241.14 53.3051 240.895 52.7351 240.543 52.2317Z" fill="black"/>
<path d="M211.013 84.2435C210.875 84.1478 207.587 81.7943 205.94 78.9621C204.23 76.0211 210.389 70.2677 210.455 70.0168L211.116 70.6935C210.696 72.2515 205.9 76.2555 207.092 78.302C208.594 80.8865 211.756 83.1476 211.789 83.1707L211.013 84.2435Z" fill="#353146"/>
<path d="M224.398 70.812L223.883 70.1023C223.989 70.0264 234.357 62.5269 235.991 60.1007L236.044 60.0281L236.12 59.9786C236.153 59.9555 239.457 57.8166 239.995 55.1231C240.094 54.6202 240.086 54.102 239.973 53.6022C239.859 53.1024 239.642 52.6321 239.335 52.2216L239.259 52.1094V52.0302C239.193 51.9443 238.707 51.4591 236.252 51.6704L236.176 50.7957C238.021 50.6372 239.239 50.8188 239.807 51.337C239.948 51.4586 240.052 51.6176 240.107 51.7958C240.464 52.2977 240.714 52.8673 240.843 53.4697C240.971 54.072 240.974 54.6942 240.853 55.298C240.487 57.1234 239.097 58.6649 237.998 59.632C237.09 60.4341 236.215 61.2824 235.341 62.1176C232.023 65.2963 224.761 70.5512 224.398 70.812Z" fill="#E8F5FF"/>
<path d="M158.124 133.861L157.249 133.877L157.347 139.194L158.221 139.178L158.124 133.861Z" fill="#E8F5FF"/>
<path d="M157.176 134.667C160.704 134.667 163.564 131.807 163.564 128.28C163.564 124.752 160.704 121.893 157.176 121.893C153.649 121.893 150.789 124.752 150.789 128.28C150.789 131.807 153.649 134.667 157.176 134.667Z" fill="#6C63FF"/>
<path d="M157.176 133.585C160.106 133.585 162.481 131.21 162.481 128.28C162.481 125.35 160.106 122.976 157.176 122.976C154.247 122.976 151.872 125.35 151.872 128.28C151.872 131.21 154.247 133.585 157.176 133.585Z" fill="#E8F5FF"/>
<path d="M185.947 168.943C185.506 168.944 185.065 168.92 184.626 168.874C178.447 169.238 172.359 167.245 167.591 163.298C161.319 158.017 157.761 149.481 157.028 137.918L158.348 137.836C159.055 149.026 162.448 157.255 168.442 162.292C175.764 168.448 184.474 167.573 184.56 167.573H184.633H184.706C186.144 167.758 187.605 167.617 188.981 167.16C190.357 166.703 191.613 165.942 192.654 164.932C198.658 159.344 200.457 146.332 200.183 139.443C199.853 131.683 202.656 109.475 205.993 105.071C208.914 101.213 210.726 83.8206 210.746 83.6457L210.795 83.1506L211.284 83.0647C211.314 83.0647 214.166 82.5234 214.522 80.3911C214.984 77.6117 223.269 70.3466 224.21 69.5247L225.072 70.5149C221.649 73.4857 216.106 78.8595 215.829 80.6056C215.427 83.0218 213.06 83.9461 212.017 84.2365C211.687 87.1281 209.947 102.031 207.065 105.857C204.114 109.755 201.173 131.165 201.504 139.381C201.787 146.504 199.883 159.998 193.555 165.886C191.518 167.863 188.785 168.961 185.947 168.943Z" fill="#353146"/>
<g opacity="0.1">
<path d="M239.661 34.1463C240.203 32.146 240.856 30.1324 241.312 28.1057C240.767 30.1423 240.11 32.146 239.661 34.1463Z" fill="black"/>
<path d="M234.139 49.8651C233.479 48.416 233.832 46.7392 233.845 45.1482C233.858 43.5571 233.271 41.6955 231.739 41.2499C228.676 40.3949 226.564 46.1087 223.553 45.0755C221.243 44.2866 221.853 40.7844 220.52 38.761C219.467 37.1568 217.357 36.7079 215.72 35.7044C212.228 33.5622 212.334 30.1359 210.716 26.8945C209.016 23.4946 205.435 24.498 202.319 26.505C199.952 28.03 197.916 30.0732 195.387 31.2912C193.199 32.3442 190.739 32.7271 188.313 32.7832C185.359 32.8525 182.144 32.3277 180.114 30.1821C178.549 28.5317 177.985 26.1122 178.308 23.8445C178.252 23.9996 178.203 24.1548 178.153 24.3099C177.361 26.9077 177.823 29.961 179.675 31.9349C181.705 34.0804 184.92 34.6019 187.874 34.5359C190.304 34.4798 192.76 34.0969 194.951 33.0439C197.486 31.8226 199.523 29.7827 201.883 28.2577C204.999 26.2508 208.584 25.2473 210.28 28.6472C211.898 31.8886 211.796 35.3149 215.285 37.4572C216.935 38.4474 219.031 38.9096 220.087 40.5138C221.408 42.5438 220.823 46.0394 223.121 46.8283C226.128 47.8582 228.24 42.1477 231.304 43.0026C232.835 43.4317 233.426 45.3132 233.41 46.9009C233.393 48.4886 233.05 50.1687 233.703 51.6178C236.242 51.5023 239.381 50.9576 240.117 48.515C240.218 48.1645 240.265 47.8004 240.255 47.4356C239.183 49.2874 236.423 49.7627 234.139 49.8651Z" fill="black"/>
</g>
<path opacity="0.1" d="M293.795 131.198L297.628 135.251C297.628 135.251 300.694 157.588 302.226 159.678C303.757 161.767 307.375 170.079 303.978 176.321C303.978 176.321 302.882 179.717 303.539 181.14C304.196 182.562 298.614 189.682 298.614 189.682C298.614 189.682 291.277 196.251 289.742 197.238C288.207 198.225 280.107 206.107 277.37 206.216C274.634 206.325 273.739 209.722 273.739 209.722L258.298 210.27C258.298 210.27 249.769 209.824 247.913 211.029C247.913 211.029 248.904 197.997 239.374 189.455L251.528 185.074C251.528 185.074 256.129 183.094 257.552 181.024C258.447 179.755 259.717 178.799 261.183 178.288C261.183 178.288 264.576 175.878 264.685 174.564C264.794 173.251 268.834 171.64 268.834 171.64L266.547 152.115L267.752 119.701C267.752 119.701 271.584 92.5417 279.687 94.0766C287.791 95.6115 293.795 131.198 293.795 131.198Z" fill="black"/>
<path d="M295.116 131.198L298.948 135.251C298.948 135.251 302.014 157.588 303.546 159.678C305.078 161.767 308.695 170.079 305.299 176.321C305.299 176.321 304.206 179.717 304.863 181.14C305.52 182.562 299.935 189.682 299.935 189.682C299.935 189.682 292.597 196.251 291.062 197.238C289.527 198.225 281.427 206.107 278.691 206.216C275.954 206.325 275.06 209.722 275.06 209.722L259.618 210.27C259.618 210.27 251.082 209.824 249.234 211.029C249.234 211.029 250.224 197.997 240.695 189.455L252.848 185.074C252.848 185.074 257.45 183.094 258.872 181.024C259.767 179.755 261.037 178.799 262.503 178.288C262.503 178.288 265.896 175.878 266.005 174.564C266.114 173.251 270.155 171.64 270.155 171.64L267.867 152.115L269.072 119.701C269.072 119.701 272.904 92.5417 281.008 94.0766C289.111 95.6115 295.116 131.198 295.116 131.198Z" fill="#E8F5FF"/>
<path opacity="0.1" d="M280.869 163.942C280.869 163.942 292.148 160.971 295.106 164.602C298.063 168.233 280.869 163.942 280.869 163.942Z" fill="black"/>
<path opacity="0.1" d="M278.242 168.923C282.074 171.607 293.901 171.716 293.901 171.716L278.242 168.923Z" fill="black"/>
<path opacity="0.1" d="M284.044 182.338C284.375 182.447 292.174 190.772 295.449 188.253C298.723 185.734 284.044 182.338 284.044 182.338Z" fill="black"/>
<path opacity="0.1" d="M178.998 112.472C178.998 112.472 181.289 128.244 180.16 134.667C179.031 141.091 183.151 149.049 183.151 149.049L178.998 112.472Z" fill="black"/>
<path d="M128.284 118.886C125.643 120.955 123.716 125.854 122.32 131.238C119.883 140.628 119.088 151.518 119.088 151.518C119.088 151.518 98.0616 146.699 99.5932 144.51C100.557 143.134 99.2631 132.763 98.1837 125.243C97.54 120.8 96.9657 117.351 96.9657 117.351C96.9657 117.351 135.513 113.189 128.284 118.886Z" fill="#FFCCD0"/>
<path opacity="0.1" d="M128.284 118.447C125.643 120.52 123.716 125.415 122.32 130.798C118.13 132.07 113.675 132.185 109.426 131.13C105.176 130.076 101.292 127.891 98.1837 124.807C97.54 120.361 96.9657 116.912 96.9657 116.912C96.9657 116.912 135.513 112.753 128.284 118.447Z" fill="black"/>
<path d="M139.586 106.649C139.588 112.391 137.559 117.947 133.858 122.337C130.157 126.726 125.023 129.664 119.364 130.631C113.705 131.599 107.886 130.533 102.937 127.623C97.9881 124.712 94.2283 120.145 92.3231 114.729C90.4179 109.313 90.4901 103.398 92.5269 98.0303C94.5637 92.6625 98.4338 88.1884 103.452 85.3997C108.471 82.611 114.314 81.6876 119.948 82.7929C125.582 83.8982 130.643 86.9609 134.236 91.4391C137.698 95.7527 139.585 101.118 139.586 106.649Z" fill="#FFCCD0"/>
<path opacity="0.1" d="M158.758 258.673H151.826L151.242 246.43L150.631 233.758C150.631 233.758 152.205 233.524 154.714 233.174L155.727 233.039H155.81C156.358 235.61 156.899 238.251 157.421 240.888C158.289 245.57 158.741 250.32 158.771 255.082C158.771 255.412 158.771 255.742 158.771 256.052C158.791 256.934 158.771 257.815 158.758 258.673Z" fill="black"/>
<path d="M157.427 258.673H70.4962C70.8725 257.818 71.1234 257.3 71.1234 257.3C71.1234 257.3 78.0783 226.873 81.6135 214C81.6145 213.989 81.6145 213.978 81.6135 213.967C82.0552 212.218 82.5884 210.494 83.2111 208.801C83.2513 208.686 83.3033 208.575 83.3662 208.471C85.1157 205.625 87.3074 202.559 84.2409 198.179C81.1745 193.799 82.2604 174.525 82.2604 174.525C82.2604 174.525 85.9838 158.097 89.925 149.336C90.5231 147.979 91.372 146.747 92.427 145.705C92.7701 145.37 93.1363 145.059 93.5229 144.774C93.8169 144.553 94.1233 144.35 94.4406 144.164L94.5033 144.124C96.1589 143.185 97.9974 142.615 99.8936 142.451C101.24 142.31 102.6 142.347 103.937 142.563C110.328 143.5 115.444 145.068 119.511 146.854C130.532 151.696 133.869 158.186 133.935 158.321L133.962 158.377C134.404 159.41 140.874 174.515 143.204 181.562C143.808 183.398 144.138 184.688 144.006 185.041C143.346 186.791 149.043 208.692 149.043 208.692C149.043 208.692 151.684 219.255 154.325 231.636C154.44 232.151 154.549 232.666 154.655 233.188C155.127 235.435 155.595 237.726 156.048 240.014C156.924 244.728 157.376 249.511 157.398 254.306C157.446 255.801 157.456 257.256 157.427 258.673Z" fill="#FF748E"/>
<path opacity="0.1" d="M99.3753 134.918C99.3753 134.918 93.3777 132.607 93.4503 136.113C93.5229 139.618 94.9126 141.295 94.4736 141.807C94.0346 142.319 94.6914 145.385 94.6914 145.385C94.6914 145.385 102.795 145.385 106.518 147.062C110.242 148.739 123.967 152.099 125.719 153.122C127.472 154.145 133.972 158.734 133.972 158.734L134.556 150.046C134.556 150.046 127.839 144.497 116.817 141.652C105.795 138.806 99.3753 134.918 99.3753 134.918Z" fill="black"/>
<path d="M99.3753 134.479C99.3753 134.479 93.3777 132.168 93.4503 135.674C93.5229 139.179 94.9126 140.856 94.4736 141.368C94.0346 141.879 94.6914 144.946 94.6914 144.946C94.6914 144.946 102.795 144.946 106.518 146.626C110.242 148.306 123.967 151.663 125.719 152.683C127.472 153.703 133.972 158.294 133.972 158.294L134.562 149.633C134.562 149.633 127.845 144.084 116.824 141.239C105.802 138.394 99.3753 134.479 99.3753 134.479Z" fill="#FF748E"/>
<path opacity="0.1" d="M117.48 155.386C117.48 155.386 128.941 167.794 128.357 171.231C127.773 174.667 117.48 155.386 117.48 155.386Z" fill="black"/>
<path opacity="0.1" d="M98.8636 200.209C98.8636 200.209 90.463 207.949 87.9873 208.388C85.5117 208.827 89.8853 210.286 92.7306 209.121C95.576 207.956 101.643 204.889 101.643 204.889L98.8636 200.209Z" fill="black"/>
<path d="M160.84 258.673H141.25C138.51 256.297 135.919 254.095 134.269 252.771C131.628 250.652 129.723 247.533 128.509 245.024C128.235 244.453 127.997 243.919 127.796 243.433C127.435 242.598 127.118 241.744 126.845 240.875L141.352 232.26C142.154 232.942 142.907 233.679 143.607 234.465L143.782 234.666C144.587 235.617 145.297 236.696 145.359 237.581C145.432 238.611 148.297 242.595 151.225 246.421C154.196 250.312 157.239 254.032 157.441 254.283C157.441 254.283 157.942 254.967 158.761 256.016C159.339 256.775 160.052 257.686 160.84 258.673Z" fill="#FFCCD0"/>
<path opacity="0.1" d="M134.236 91.4392C133.539 93.0104 132.915 94.641 132.823 96.3904C132.562 101.441 132.985 112.733 127.393 115.268C124.624 116.516 121.659 113.776 118.623 113.71C116.437 113.664 114.434 115.05 113.1 116.783C111.767 118.516 110.938 120.572 109.971 122.533C109.091 124.313 108.077 126.023 106.938 127.649C106.597 128.147 106.222 128.62 105.815 129.066C102.406 127.627 99.3696 125.429 96.9382 122.639C94.5067 119.849 92.7442 116.541 91.7849 112.967C90.8257 109.393 90.6949 105.647 91.4026 102.014C92.1104 98.3819 93.6379 94.9589 95.8689 92.0063C98.0999 89.0537 100.975 86.6494 104.276 84.9764C107.577 83.3034 111.217 82.4061 114.917 82.3526C118.617 82.2992 122.281 83.0911 125.629 84.6681C128.977 86.245 131.92 88.5654 134.236 91.4523V91.4392Z" fill="black"/>
<path d="M132.384 95.4992C132.12 100.549 132.546 111.842 126.951 114.373C124.181 115.621 121.217 112.885 118.18 112.819C115.995 112.769 113.995 114.159 112.658 115.888C111.321 117.618 110.499 119.678 109.529 121.642C108.648 123.421 107.634 125.132 106.495 126.758C105.815 127.722 105.063 128.689 104.016 129.231C102.194 130.181 99.986 129.646 98.0319 129.036C95.4968 128.237 92.9992 127.337 90.539 126.336C90.5954 125.964 90.6241 125.589 90.6248 125.213C90.5522 125.352 90.4729 125.481 90.3937 125.619L90.2386 125.89C89.958 126.385 89.684 126.88 89.4332 127.389C89.3374 127.583 89.245 127.785 89.1625 127.986C88.8305 128.735 88.6221 129.534 88.5452 130.349C88.3769 132.551 89.4629 134.641 90.4267 136.621C94.1336 144.282 96.4244 153.241 93.6351 161.278C92.427 164.774 90.3343 167.88 88.806 171.257C86.1344 177.238 85.348 183.89 86.5515 190.329C87.314 194.33 88.8423 198.291 88.466 202.348C87.8059 209.329 81.7851 214.524 75.7545 218.096C72.4965 220.017 68.5091 221.727 65.0498 220.208C67.2548 217.634 67.8225 214.072 68.2978 210.712C69.5984 201.547 70.9022 192.377 72.2093 183.203C72.7309 179.552 73.2513 175.901 73.7706 172.25C74.7411 165.391 75.7248 158.456 75.1174 151.554C74.6751 146.468 73.4274 141.067 75.6323 136.463C76.7975 134.023 78.8738 132.003 79.5207 129.376C80.0522 127.24 79.557 124.969 79.9069 122.794C80.0984 121.804 80.4226 120.845 80.8708 119.942C81.4414 118.717 82.1863 117.58 83.0823 116.568C82.1977 116.311 81.3725 115.958 80.8708 115.218C82.2901 114.294 82.5047 112.211 81.861 110.647C81.2174 109.082 79.93 107.891 78.7714 106.656C77.6128 105.421 76.4971 103.982 76.3519 102.299C76.0713 99.0938 79.2732 96.6115 79.8376 93.4493C80.4086 90.231 78.1509 87.1018 78.3324 83.8439C78.5437 79.9059 82.1614 77.0441 85.7329 75.3838C91.1225 72.8888 97.0761 71.8639 102.99 72.413C107.802 72.8685 112.46 74.3572 117.259 74.9349C120.154 75.265 123.089 75.298 125.964 75.8063C128.839 76.3146 131.72 77.3874 133.744 79.4966C139.078 85.0586 132.687 89.6368 132.384 95.4992Z" fill="#FFE0D0"/>
<path opacity="0.1" d="M127.921 245.028C126.238 244.298 123.174 244.734 117.916 243.133C112.658 241.532 111.645 234.297 111.645 234.297V234.273C111.582 234.108 111.093 233.032 107.786 229.263C104.132 225.1 96.2329 204.077 96.2329 204.077C96.2329 204.077 89.2285 196.555 89.4497 193.782C89.6708 191.009 88.2052 183.632 88.3505 175.38C88.4957 167.128 104.119 161.655 104.119 161.655C134.199 156.324 127.116 191.003 126.314 193.63C125.511 196.258 129.674 203.354 129.674 203.354C129.086 206.444 132.083 211.227 132.083 211.227C132.083 211.227 132.81 215.459 132.958 217.066C132.966 217.14 132.983 217.214 133.008 217.284C133.49 218.799 137.418 220.172 139.015 221.007C140.695 221.885 146.099 229.55 146.099 229.55C147.264 235.178 129.598 245.767 127.921 245.028Z" fill="black"/>
<path d="M128.796 243.707C127.116 242.974 124.049 243.413 118.794 241.809C113.539 240.205 112.523 232.976 112.523 232.976V232.953C112.463 232.785 111.971 231.712 108.664 227.942C105.01 223.78 97.1109 202.754 97.1109 202.754C97.1109 202.754 90.1065 195.234 90.3244 192.462C90.5422 189.689 89.0833 182.311 89.2285 174.066C89.3737 165.82 104.987 160.351 104.987 160.351C135.067 155.02 127.984 189.699 127.182 192.326C126.38 194.954 130.542 202.051 130.542 202.051C129.954 205.14 132.952 209.923 132.952 209.923C132.952 209.923 133.678 214.155 133.83 215.762C133.835 215.837 133.851 215.91 133.876 215.98C134.358 217.495 138.286 218.868 139.887 219.703C141.563 220.578 146.97 228.246 146.97 228.246C148.142 233.864 130.476 244.453 128.796 243.707Z" fill="#FF748E"/>
<path opacity="0.1" d="M105.581 178.456C105.581 178.456 118.722 192.32 122.151 192.32C125.581 192.32 105.581 178.456 105.581 178.456Z" fill="black"/>
<path d="M128.796 243.707C127.116 242.975 124.049 243.414 118.794 241.809C113.539 240.205 112.523 232.976 112.523 232.976V232.953C116.005 230.643 124.825 224.117 128.301 221.73C130.747 220.057 132.744 217.598 133.912 215.967C134.394 217.482 138.322 218.855 139.923 219.69C141.6 220.565 147.007 228.233 147.007 228.233C148.142 233.864 130.476 244.453 128.796 243.707Z" fill="#FF748E"/>
<g opacity="0.1">
<path d="M80.8906 115.255C80.9071 115.281 80.9302 115.304 80.95 115.331C81.0491 115.205 81.1514 115.08 81.257 114.961C81.1445 115.071 81.0218 115.169 80.8906 115.255Z" fill="black"/>
<path d="M88.5485 130.386C88.6872 128.554 89.6675 126.939 90.5852 125.329C89.9844 125.098 89.3837 124.863 88.7895 124.619C88.8461 124.249 88.8748 123.875 88.8753 123.5C87.9478 125.15 86.9377 126.774 86.7958 128.633C86.6275 130.838 87.7134 132.924 88.6773 134.904C92.3874 142.562 94.6749 151.521 91.8857 159.562C90.6743 163.054 88.5849 166.163 87.0566 169.54C84.3859 175.52 83.6007 182.172 84.8054 188.609C85.5613 192.613 87.0929 196.571 86.7166 200.628C86.0564 207.609 80.039 212.804 74.005 216.373C71.5393 217.832 68.6576 219.168 65.9014 219.073C65.6463 219.483 65.3617 219.875 65.0498 220.245C68.5124 221.773 72.4965 220.053 75.7545 218.125C81.7917 214.561 87.8224 209.378 88.4825 202.384C88.8588 198.327 87.3272 194.369 86.568 190.365C85.363 183.928 86.1459 177.277 88.8126 171.296C90.331 167.923 92.4435 164.81 93.6418 161.318C96.431 153.277 94.1402 144.318 90.4333 136.66C89.4728 134.667 88.3802 132.591 88.5485 130.386Z" fill="black"/>
<path d="M133.737 79.5363C133.412 79.2032 133.064 78.8943 132.694 78.6121C136.695 83.801 130.918 88.2109 130.631 93.796C130.374 98.8463 130.796 110.142 125.201 112.67C122.435 113.921 119.468 111.182 116.434 111.116C114.246 111.069 112.245 112.459 110.908 114.189C109.572 115.918 108.75 117.978 107.783 119.939C106.9 121.718 105.885 123.428 104.746 125.055C104.086 126.022 103.313 126.986 102.264 127.531C100.448 128.478 98.2398 127.947 96.2824 127.333C94.3789 126.734 92.493 126.074 90.6248 125.352C90.6209 125.696 90.5922 126.039 90.5389 126.379C93.0014 127.382 95.5001 128.282 98.0352 129.079C99.9893 129.693 102.198 130.224 104.016 129.277C105.063 128.732 105.822 127.765 106.499 126.798C107.639 125.173 108.653 123.464 109.532 121.685C110.502 119.724 111.321 117.661 112.661 115.931C114.001 114.202 115.998 112.815 118.184 112.862C121.22 112.928 124.188 115.667 126.954 114.416C132.549 111.888 132.123 100.592 132.384 95.5421C132.687 89.6699 139.078 85.0949 133.737 79.5363Z" fill="black"/>
</g>
<path opacity="0.1" d="M90.2419 125.893C89.9613 126.389 89.6873 126.884 89.4365 127.392C89.3408 127.587 89.2483 127.788 89.1658 127.989C87.4362 126.247 83.2243 122.104 80.8741 120.82C81.4455 119.595 82.1903 118.459 83.0856 117.447C83.0856 117.447 88.6872 120.407 90.2419 125.893Z" fill="black"/>
<path d="M90.397 125.622C89.0998 119.75 83.0856 116.572 83.0856 116.572C82.1896 117.583 81.4447 118.72 80.8741 119.945C83.353 121.302 87.9214 125.85 89.4365 127.392L90.397 125.622Z" fill="#FF748E"/>
</g>
<defs>
<linearGradient id="paint0_linear_51_10301" x1="240.972" y1="31.816" x2="240.972" y2="25.749" gradientUnits="userSpaceOnUse">
<stop stop-color="#808080" stop-opacity="0.25"/>
<stop offset="0.54" stop-color="#808080" stop-opacity="0.12"/>
<stop offset="1" stop-color="#808080" stop-opacity="0.1"/>
</linearGradient>
<linearGradient id="paint1_linear_51_10301" x1="185.782" y1="258.674" x2="185.782" y2="0.322771" gradientUnits="userSpaceOnUse">
<stop stop-color="#808080" stop-opacity="0.25"/>
<stop offset="0.54" stop-color="#808080" stop-opacity="0.12"/>
<stop offset="1" stop-color="#808080" stop-opacity="0.1"/>
</linearGradient>
<clipPath id="clip0_51_10301">
<rect width="358.515" height="258.347" fill="white" transform="translate(0 0.32251)"/>
</clipPath>
</defs>
</svg>
