<svg width="144" height="196" viewBox="0 0 144 196" fill="none" xmlns="http://www.w3.org/2000/svg">
<g clip-path="url(#clip0_3_57)">
<path d="M81.6791 126.302C81.8083 126.302 81.9424 126.264 82.0716 126.24V125.986C81.9424 126.096 81.8083 126.202 81.6791 126.302Z" fill="#140562"/>
<path d="M81.6791 126.302C81.8083 126.302 81.9424 126.264 82.0716 126.24V125.986C81.9424 126.096 81.8083 126.202 81.6791 126.302Z" fill="#140562"/>
<path d="M81.6791 126.302C81.8083 126.302 81.9424 126.264 82.0716 126.24V125.986C81.9424 126.096 81.8083 126.202 81.6791 126.302Z" fill="#140562"/>
<path d="M81.6791 126.302C81.8083 126.302 81.9424 126.264 82.0716 126.24V125.986C81.9424 126.096 81.8083 126.202 81.6791 126.302Z" fill="#140562"/>
<path d="M81.6791 126.302C81.8083 126.302 81.9424 126.264 82.0716 126.24V125.986C81.9424 126.096 81.8083 126.202 81.6791 126.302Z" fill="#140562"/>
<path d="M81.6791 126.302C81.8083 126.302 81.9424 126.264 82.0716 126.24V125.986C81.9424 126.096 81.8083 126.202 81.6791 126.302Z" fill="#140562"/>
<path d="M82.0716 125.986V126.24C81.9424 126.24 81.8083 126.288 81.6791 126.302C81.8083 126.202 81.9424 126.096 82.0716 125.986Z" fill="#140562"/>
<path d="M95.9871 70.4726C95.9628 74.375 95.6427 78.2699 95.0297 82.1239C88.1364 88.9145 82.887 97.1913 79.683 106.322C79.1384 104.187 78.5016 102.078 77.7747 100C77.164 98.2544 76.4897 96.531 75.7529 94.8332C80.6007 85.3083 87.5135 76.9858 95.9871 70.4726Z" fill="#140562"/>
<path d="M82.0716 125.986V126.24C81.9424 126.24 81.8083 126.288 81.6791 126.302C81.8083 126.202 81.9424 126.096 82.0716 125.986Z" fill="#140562"/>
<path d="M143.1 55.7338C141.935 55.6764 140.764 55.6477 139.586 55.6477C138.03 55.6477 136.484 55.6955 134.957 55.796C127.221 56.2747 122.214 57.055 115.331 59.817C115.596 62.4239 115.729 65.0425 115.728 67.6628C115.728 67.9643 115.728 68.2659 115.728 68.5675C122.535 65.4704 127.59 64.4986 135.426 63.9912C135.343 77.8131 130.75 91.23 122.345 102.203C113.94 113.176 102.183 121.105 88.8593 124.785C86.6247 125.403 84.3568 125.893 82.0667 126.254C81.9375 126.254 81.8034 126.302 81.6742 126.317C81.8034 126.216 81.9375 126.111 82.0667 126.001C90.3544 119.307 97.1526 110.957 102.026 101.484C106.899 92.0107 109.74 81.6242 110.367 70.9897C110.456 69.477 110.501 67.9532 110.501 66.4182C110.501 64.8832 110.456 63.3737 110.367 61.8898C109.759 51.3443 106.973 41.039 102.186 31.6231C97.3982 22.2073 90.7127 13.8849 82.5502 7.18034H82.5215C81.8066 6.58996 81.0806 6.01553 80.3434 5.45706C77.8365 3.54098 75.213 1.7824 72.4881 0.191476L72.1818 0L71.8754 0.177115L71.5834 0.349443C68.9606 1.8969 66.4333 3.60093 64.0153 5.45227C63.4856 5.85437 62.959 6.26605 62.4357 6.68729C47.5894 18.6275 37.7264 35.6724 34.7722 54.494C37.5833 55.662 40.323 56.9951 42.9769 58.4863C44.0405 49.3693 46.9414 40.5625 51.5044 32.5982C56.0674 24.6339 62.1978 17.6774 69.525 12.1491C70.3931 11.4885 71.2771 10.8503 72.177 10.2344C81.3268 16.4671 88.8142 24.8423 93.987 34.6306C99.1597 44.4188 101.861 55.3232 101.856 66.3942C101.86 75.3993 100.073 84.3153 96.5982 92.6231C93.1235 100.931 88.0309 108.464 81.6167 114.785L81.4013 114.996C79.8951 116.47 78.3202 117.873 76.6767 119.203L76.5378 119.313C75.9158 113.482 74.5732 107.749 72.5408 102.248C66.9236 87.0873 56.3509 74.2679 42.5365 65.8677C39.7915 64.2089 36.9367 62.7391 33.9919 61.4685C26.1014 58.0241 17.6512 56.0405 9.0522 55.6141C7.84271 55.5503 6.62684 55.52 5.40459 55.5232C3.88555 55.5232 2.38087 55.5695 0.890545 55.662C0.614676 58.2601 0.47885 60.8711 0.483659 63.4838V63.9242C0.562077 79.2617 5.57457 94.1667 14.7798 106.435C23.985 118.703 36.8942 127.683 51.5981 132.047C54.7928 132.999 58.0514 133.722 61.349 134.21C63.6228 134.55 65.9397 134.785 68.2805 134.909H68.4863C69.6511 134.967 70.8223 134.995 71.9999 134.995C73.0578 134.995 74.1157 134.995 75.164 134.928H75.4895L76.0448 134.899L76.5235 134.871H76.5953C78.2611 134.765 79.911 134.606 81.5449 134.392C85.2728 133.889 88.9545 133.089 92.5548 131.999C107.205 127.599 120.059 118.618 129.23 106.376C138.401 94.1331 143.406 79.2732 143.511 63.9769C143.511 63.8141 143.511 63.6466 143.511 63.4982C143.515 60.9045 143.378 58.3125 143.1 55.7338ZM44.1401 82.2625C41.3653 80.4808 38.25 78.4038 34.5328 76.6238C37.1565 96.233 47.2737 114.064 62.7612 126.374C47.7315 124.166 33.9939 116.636 24.0481 105.154C14.1023 93.6716 8.6093 79.0002 8.56872 63.8093C17.4097 64.2383 26.0618 66.5216 33.9632 70.511C37.2093 72.1574 40.3082 74.0792 43.2258 76.2552C49.5705 80.973 54.9823 86.8296 59.1853 93.5264C64.1958 101.501 67.3545 110.498 68.4288 119.854C56.1232 110.161 47.5432 97.5533 44.1401 82.2625Z" fill="#140562"/>
</g>
<path d="M11.6033 195V162.8H17.5833V189.94H34.4193V195H11.6033ZM48.9038 195.322C46.3891 195.322 44.1505 194.785 42.1878 193.712C40.2251 192.608 38.6765 191.105 37.5418 189.204C36.4071 187.303 35.8398 185.141 35.8398 182.718C35.8398 180.265 36.4071 178.103 37.5418 176.232C38.6765 174.331 40.2251 172.843 42.1878 171.77C44.1505 170.697 46.3891 170.16 48.9038 170.16C51.4491 170.16 53.7031 170.697 55.6658 171.77C57.6591 172.843 59.2078 174.315 60.3118 176.186C61.4465 178.057 62.0138 180.234 62.0138 182.718C62.0138 185.141 61.4465 187.303 60.3118 189.204C59.2078 191.105 57.6591 192.608 55.6658 193.712C53.7031 194.785 51.4491 195.322 48.9038 195.322ZM48.9038 190.4C50.3145 190.4 51.5718 190.093 52.6758 189.48C53.7798 188.867 54.6385 187.977 55.2518 186.812C55.8958 185.647 56.2178 184.282 56.2178 182.718C56.2178 181.123 55.8958 179.759 55.2518 178.624C54.6385 177.459 53.7798 176.569 52.6758 175.956C51.5718 175.343 50.3298 175.036 48.9498 175.036C47.5391 175.036 46.2818 175.343 45.1778 175.956C44.1045 176.569 43.2458 177.459 42.6018 178.624C41.9578 179.759 41.6358 181.123 41.6358 182.718C41.6358 184.282 41.9578 185.647 42.6018 186.812C43.2458 187.977 44.1045 188.867 45.1778 189.48C46.2818 190.093 47.5238 190.4 48.9038 190.4ZM76.2582 195.322C73.5596 195.322 71.4742 194.632 70.0022 193.252C68.5302 191.841 67.7942 189.771 67.7942 187.042V165.008H73.5442V186.904C73.5442 188.069 73.8356 188.974 74.4182 189.618C75.0316 190.262 75.8749 190.584 76.9482 190.584C78.2362 190.584 79.3096 190.247 80.1682 189.572L81.7782 193.666C81.1036 194.218 80.2756 194.632 79.2942 194.908C78.3129 195.184 77.3009 195.322 76.2582 195.322ZM63.7462 175.22V170.62H80.1222V175.22H63.7462ZM96.4043 195.322C94.319 195.322 92.479 194.939 90.8843 194.172C89.2897 193.375 88.0477 192.179 87.1583 190.584C86.269 188.959 85.8243 186.919 85.8243 184.466V170.436H91.5743V183.684C91.5743 185.892 92.065 187.548 93.0463 188.652C94.0583 189.725 95.4843 190.262 97.3243 190.262C98.6737 190.262 99.839 189.986 100.82 189.434C101.832 188.882 102.614 188.054 103.166 186.95C103.749 185.846 104.04 184.481 104.04 182.856V170.436H109.79V195H104.316V188.376L105.282 190.4C104.454 191.995 103.243 193.221 101.648 194.08C100.054 194.908 98.3057 195.322 96.4043 195.322ZM124.409 195.322C122.354 195.322 120.376 195.061 118.475 194.54C116.604 193.988 115.117 193.329 114.013 192.562L116.221 188.192C117.325 188.897 118.644 189.48 120.177 189.94C121.71 190.4 123.244 190.63 124.777 190.63C126.586 190.63 127.89 190.385 128.687 189.894C129.515 189.403 129.929 188.744 129.929 187.916C129.929 187.241 129.653 186.735 129.101 186.398C128.549 186.03 127.828 185.754 126.939 185.57C126.05 185.386 125.053 185.217 123.949 185.064C122.876 184.911 121.787 184.711 120.683 184.466C119.61 184.19 118.628 183.807 117.739 183.316C116.85 182.795 116.129 182.105 115.577 181.246C115.025 180.387 114.749 179.253 114.749 177.842C114.749 176.278 115.194 174.929 116.083 173.794C116.972 172.629 118.214 171.739 119.809 171.126C121.434 170.482 123.351 170.16 125.559 170.16C127.215 170.16 128.886 170.344 130.573 170.712C132.26 171.08 133.655 171.601 134.759 172.276L132.551 176.646C131.386 175.941 130.205 175.465 129.009 175.22C127.844 174.944 126.678 174.806 125.513 174.806C123.765 174.806 122.462 175.067 121.603 175.588C120.775 176.109 120.361 176.769 120.361 177.566C120.361 178.302 120.637 178.854 121.189 179.222C121.741 179.59 122.462 179.881 123.351 180.096C124.24 180.311 125.222 180.495 126.295 180.648C127.399 180.771 128.488 180.97 129.561 181.246C130.634 181.522 131.616 181.905 132.505 182.396C133.425 182.856 134.161 183.515 134.713 184.374C135.265 185.233 135.541 186.352 135.541 187.732C135.541 189.265 135.081 190.599 134.161 191.734C133.272 192.869 131.999 193.758 130.343 194.402C128.687 195.015 126.709 195.322 124.409 195.322Z" fill="#140562"/>
<defs>
<clipPath id="clip0_3_57">
<rect width="143.032" height="135" fill="white" transform="translate(0.483795)"/>
</clipPath>
</defs>
</svg>
