<svg width="27" height="27" viewBox="0 0 27 27" fill="none" xmlns="http://www.w3.org/2000/svg">
<g clip-path="url(#clip0_32_2780)">
<path d="M19.8565 9.4053C20.0733 9.4053 20.2609 9.48451 20.4193 9.64293C20.5778 9.80135 20.657 9.98895 20.657 10.2057C20.657 10.4225 20.5778 10.6101 20.4193 10.7685C20.2609 10.927 20.0733 11.0062 19.8565 11.0062C19.6398 11.0062 19.4522 10.927 19.2937 10.7685C19.1353 10.6101 19.0561 10.4225 19.0561 10.2057C19.0561 9.98895 19.1353 9.80135 19.2937 9.64293C19.4522 9.48451 19.6398 9.4053 19.8565 9.4053ZM17.4552 11.8066C17.672 11.8066 17.8596 11.8858 18.018 12.0442C18.1765 12.2027 18.2557 12.3903 18.2557 12.607C18.2557 12.8238 18.1765 13.0114 18.018 13.1699C17.8596 13.3283 17.672 13.4075 17.4552 13.4075C17.2384 13.4075 17.0508 13.3283 16.8924 13.1699C16.734 13.0114 16.6548 12.8238 16.6548 12.607C16.6548 12.3819 16.7298 12.1943 16.8799 12.0442C17.03 11.8942 17.2218 11.8149 17.4552 11.8066ZM15.0539 9.4053C15.2707 9.4053 15.4583 9.48451 15.6167 9.64293C15.7751 9.80135 15.8544 9.98895 15.8544 10.2057C15.8544 10.4225 15.7751 10.6101 15.6167 10.7685C15.4583 10.927 15.2707 11.0062 15.0539 11.0062C14.8371 11.0062 14.6495 10.927 14.4911 10.7685C14.3327 10.6101 14.2535 10.4225 14.2535 10.2057C14.2535 9.98895 14.3327 9.80135 14.4911 9.64293C14.6495 9.48451 14.8371 9.4053 15.0539 9.4053ZM19.794 0.600494C20.6862 0.600494 21.5241 0.767252 22.3079 1.10077C23.0916 1.43428 23.7795 1.89704 24.3715 2.48902C24.9635 3.08101 25.4221 3.76472 25.7473 4.54014C26.0724 5.31557 26.2434 6.15769 26.26 7.06652C26.26 7.92532 26.0974 8.74661 25.7723 9.53037C25.4471 10.3141 24.9802 11.0145 24.3715 11.6315L11.6771 24.3259C11.0684 24.9346 10.3722 25.4015 9.58844 25.7267C8.80468 26.0519 7.97923 26.2145 7.11209 26.2145C6.21993 26.2145 5.38197 26.0477 4.59821 25.7142C3.81445 25.3807 3.12658 24.9179 2.53459 24.3259C1.9426 23.7339 1.48401 23.0502 1.15884 22.2748C0.833659 21.4994 0.662733 20.6573 0.646057 19.7484C0.646057 18.8896 0.808646 18.0684 1.13382 17.2846C1.459 16.5008 1.92592 15.8005 2.53459 15.1835L15.229 2.48902C15.8377 1.88036 16.5339 1.41344 17.3177 1.08826C18.1014 0.763083 18.9269 0.600494 19.794 0.600494ZM7.11209 24.6136C7.76244 24.6136 8.37944 24.4927 8.96309 24.2509C9.54675 24.0091 10.072 23.6547 10.539 23.1878L16.3421 17.3847L9.47587 10.5184L3.67271 16.3216C3.21412 16.7802 2.86393 17.3054 2.62214 17.8974C2.38034 18.4894 2.25527 19.1106 2.24693 19.7609C2.24693 20.4363 2.372 21.0658 2.62214 21.6495C2.87227 22.2331 3.22246 22.7459 3.67271 23.1878C4.12295 23.6297 4.63573 23.9757 5.21105 24.2259C5.78636 24.476 6.42004 24.6053 7.11209 24.6136ZM23.2334 10.4934C23.692 10.0348 24.0422 9.51369 24.284 8.93004C24.5258 8.34639 24.6508 7.72521 24.6592 7.06652C24.6592 6.39115 24.5341 5.76164 24.284 5.17799C24.0338 4.59434 23.6836 4.07739 23.2334 3.62715C22.7831 3.1769 22.2704 2.83088 21.695 2.58908C21.1197 2.34728 20.486 2.21804 19.794 2.20137C19.1437 2.20137 18.5266 2.32227 17.943 2.56407C17.3593 2.80586 16.8341 3.16022 16.3671 3.62715L10.6015 9.38029L17.4802 16.259L23.2334 10.4934Z" fill="#496BA7"/>
</g>
<defs>
<clipPath id="clip0_32_2780">
<rect width="25.614" height="25.614" fill="white" transform="translate(0.646057 0.600494)"/>
</clipPath>
</defs>
</svg>
